{
	"patcher" : 	{
		"fileversion" : 1,
		"appversion" : 		{
			"major" : 8,
			"minor" : 6,
			"revision" : 0,
			"architecture" : "x64",
			"modernui" : 1
		}
,
		"classnamespace" : "box",
		"rect" : [ -1404.0, 208.0, 916.0, 669.0 ],
		"bglocked" : 0,
		"openinpresentation" : 1,
		"default_fontsize" : 12.0,
		"default_fontface" : 0,
		"default_fontname" : "Arial",
		"gridonopen" : 1,
		"gridsize" : [ 15.0, 15.0 ],
		"gridsnaponopen" : 1,
		"objectsnaponopen" : 1,
		"statusbarvisible" : 2,
		"toolbarvisible" : 1,
		"lefttoolbarpinned" : 0,
		"toptoolbarpinned" : 0,
		"righttoolbarpinned" : 0,
		"bottomtoolbarpinned" : 0,
		"toolbars_unpinned_last_save" : 0,
		"tallnewobj" : 0,
		"boxanimatetime" : 200,
		"enablehscroll" : 1,
		"enablevscroll" : 1,
		"devicewidth" : 0.0,
		"description" : "",
		"digest" : "",
		"tags" : "",
		"style" : "default",
		"subpatcher_template" : "",
		"assistshowspatchername" : 0,
		"boxes" : [ 			{
				"box" : 				{
					"id" : "obj-5",
					"maxclass" : "button",
					"numinlets" : 1,
					"numoutlets" : 1,
					"outlettype" : [ "bang" ],
					"parameter_enable" : 0,
					"patching_rect" : [ 218.0, 14.0, 24.0, 24.0 ]
				}

			}
, 			{
				"box" : 				{
					"id" : "obj-2",
					"maxclass" : "newobj",
					"numinlets" : 1,
					"numoutlets" : 1,
					"outlettype" : [ "" ],
					"patching_rect" : [ 211.5, 50.0, 142.0, 22.0 ],
					"text" : "loadmess port \"to Max 1\""
				}

			}
, 			{
				"box" : 				{
					"fontface" : 1,
					"id" : "obj-3",
					"linecount" : 2,
					"maxclass" : "comment",
					"numinlets" : 1,
					"numoutlets" : 0,
					"patching_rect" : [ 182.0, 115.0, 149.0, 33.0 ],
					"text" : "DOUBLE CLICK HERE to assign MIDI input port",
					"textcolor" : [ 1.0, 0.0, 0.0, 1.0 ]
				}

			}
, 			{
				"box" : 				{
					"id" : "obj-42",
					"maxclass" : "comment",
					"numinlets" : 1,
					"numoutlets" : 0,
					"patching_rect" : [ 709.0, 92.0, 52.0, 20.0 ],
					"text" : "c = C5"
				}

			}
, 			{
				"box" : 				{
					"id" : "obj-41",
					"maxclass" : "comment",
					"numinlets" : 1,
					"numoutlets" : 0,
					"patching_rect" : [ 548.0, 92.0, 52.0, 20.0 ],
					"text" : "J = C4"
				}

			}
, 			{
				"box" : 				{
					"id" : "obj-40",
					"maxclass" : "comment",
					"numinlets" : 1,
					"numoutlets" : 0,
					"patching_rect" : [ 333.0, 92.0, 52.0, 20.0 ],
					"text" : "E = C3"
				}

			}
, 			{
				"box" : 				{
					"fontname" : "Helvetica Neue Medium",
					"fontsize" : 19.0,
					"id" : "obj-94",
					"linecount" : 4,
					"maxclass" : "comment",
					"numinlets" : 1,
					"numoutlets" : 0,
					"patching_rect" : [ 394.0, 311.291704297065735, 27.0, 97.0 ],
					"presentation" : 1,
					"presentation_linecount" : 4,
					"presentation_rect" : [ 217.0, 61.0, 27.0, 97.0 ],
					"text" : "h\nw\nf\nc",
					"textcolor" : [ 0.865511357784271, 0.704781293869019, 0.0, 1.0 ],
					"textjustification" : 1
				}

			}
, 			{
				"box" : 				{
					"id" : "obj-90",
					"maxclass" : "newobj",
					"numinlets" : 2,
					"numoutlets" : 1,
					"outlettype" : [ "int" ],
					"patching_rect" : [ 55.094086945056915, 498.788808226585388, 29.5, 22.0 ],
					"text" : "=="
				}

			}
, 			{
				"box" : 				{
					"id" : "obj-85",
					"maxclass" : "newobj",
					"numinlets" : 1,
					"numoutlets" : 1,
					"outlettype" : [ "" ],
					"patching_rect" : [ 434.75, 279.0, 63.0, 22.0 ],
					"text" : "prepend 0"
				}

			}
, 			{
				"box" : 				{
					"id" : "obj-86",
					"maxclass" : "newobj",
					"numinlets" : 2,
					"numoutlets" : 1,
					"outlettype" : [ "int" ],
					"patching_rect" : [ 434.75, 231.0, 33.0, 22.0 ],
					"text" : "!- 87"
				}

			}
, 			{
				"box" : 				{
					"id" : "obj-87",
					"maxclass" : "newobj",
					"numinlets" : 2,
					"numoutlets" : 1,
					"outlettype" : [ "" ],
					"patching_rect" : [ 434.75, 255.0, 34.0, 22.0 ],
					"text" : "pack"
				}

			}
, 			{
				"box" : 				{
					"id" : "obj-84",
					"maxclass" : "newobj",
					"numinlets" : 3,
					"numoutlets" : 2,
					"outlettype" : [ "int", "int" ],
					"patching_rect" : [ 434.75, 207.0, 63.0, 22.0 ],
					"text" : "split 84 95"
				}

			}
, 			{
				"box" : 				{
					"id" : "obj-83",
					"maxclass" : "newobj",
					"numinlets" : 3,
					"numoutlets" : 2,
					"outlettype" : [ "int", "int" ],
					"patching_rect" : [ 245.0, 185.0, 63.0, 22.0 ],
					"text" : "split 72 83"
				}

			}
, 			{
				"box" : 				{
					"id" : "obj-79",
					"maxclass" : "newobj",
					"numinlets" : 3,
					"numoutlets" : 2,
					"outlettype" : [ "int", "int" ],
					"patching_rect" : [ 52.0, 181.0, 63.0, 22.0 ],
					"text" : "split 60 71"
				}

			}
, 			{
				"box" : 				{
					"id" : "obj-76",
					"maxclass" : "newobj",
					"numinlets" : 1,
					"numoutlets" : 1,
					"outlettype" : [ "" ],
					"patching_rect" : [ 245.0, 279.0, 63.0, 22.0 ],
					"text" : "prepend 0"
				}

			}
, 			{
				"box" : 				{
					"id" : "obj-77",
					"maxclass" : "newobj",
					"numinlets" : 2,
					"numoutlets" : 1,
					"outlettype" : [ "int" ],
					"patching_rect" : [ 245.0, 231.0, 33.0, 22.0 ],
					"text" : "!- 77"
				}

			}
, 			{
				"box" : 				{
					"id" : "obj-78",
					"maxclass" : "newobj",
					"numinlets" : 2,
					"numoutlets" : 1,
					"outlettype" : [ "" ],
					"patching_rect" : [ 245.0, 255.0, 34.0, 22.0 ],
					"text" : "pack"
				}

			}
, 			{
				"box" : 				{
					"id" : "obj-73",
					"maxclass" : "newobj",
					"numinlets" : 1,
					"numoutlets" : 1,
					"outlettype" : [ "" ],
					"patching_rect" : [ 52.0, 290.0, 63.0, 22.0 ],
					"text" : "prepend 0"
				}

			}
, 			{
				"box" : 				{
					"id" : "obj-69",
					"maxclass" : "newobj",
					"numinlets" : 2,
					"numoutlets" : 1,
					"outlettype" : [ "int" ],
					"patching_rect" : [ 52.0, 238.0, 33.0, 22.0 ],
					"text" : "!- 65"
				}

			}
, 			{
				"box" : 				{
					"id" : "obj-67",
					"maxclass" : "newobj",
					"numinlets" : 2,
					"numoutlets" : 1,
					"outlettype" : [ "" ],
					"patching_rect" : [ 52.0, 266.0, 34.0, 22.0 ],
					"text" : "pack"
				}

			}
, 			{
				"box" : 				{
					"id" : "obj-153",
					"maxclass" : "newobj",
					"numinlets" : 1,
					"numoutlets" : 3,
					"outlettype" : [ "", "", "" ],
					"patching_rect" : [ 509.442072629928589, 464.728979229927063, 40.0, 22.0 ],
					"text" : "t l l l"
				}

			}
, 			{
				"box" : 				{
					"id" : "obj-154",
					"maxclass" : "newobj",
					"numinlets" : 2,
					"numoutlets" : 1,
					"outlettype" : [ "int" ],
					"patching_rect" : [ 434.75, 498.788808226585388, 29.5, 22.0 ],
					"text" : "=="
				}

			}
, 			{
				"box" : 				{
					"id" : "obj-163",
					"maxclass" : "newobj",
					"numinlets" : 2,
					"numoutlets" : 1,
					"outlettype" : [ "" ],
					"patching_rect" : [ 509.442072629928589, 503.203336715698242, 32.0, 22.0 ],
					"text" : "gate"
				}

			}
, 			{
				"box" : 				{
					"id" : "obj-166",
					"maxclass" : "newobj",
					"numinlets" : 2,
					"numoutlets" : 2,
					"outlettype" : [ "", "" ],
					"patching_rect" : [ 434.75, 464.728979229927063, 67.0, 22.0 ],
					"text" : "zl.compare"
				}

			}
, 			{
				"box" : 				{
					"id" : "obj-8",
					"maxclass" : "newobj",
					"numinlets" : 1,
					"numoutlets" : 3,
					"outlettype" : [ "", "", "" ],
					"patching_rect" : [ 319.692072629928589, 466.627310872077942, 40.0, 22.0 ],
					"text" : "t l l l"
				}

			}
, 			{
				"box" : 				{
					"id" : "obj-17",
					"maxclass" : "newobj",
					"numinlets" : 2,
					"numoutlets" : 1,
					"outlettype" : [ "int" ],
					"patching_rect" : [ 245.0, 500.687139868736267, 29.5, 22.0 ],
					"text" : "=="
				}

			}
, 			{
				"box" : 				{
					"id" : "obj-150",
					"maxclass" : "newobj",
					"numinlets" : 2,
					"numoutlets" : 1,
					"outlettype" : [ "" ],
					"patching_rect" : [ 319.692072629928589, 505.101668357849121, 32.0, 22.0 ],
					"text" : "gate"
				}

			}
, 			{
				"box" : 				{
					"id" : "obj-152",
					"maxclass" : "newobj",
					"numinlets" : 2,
					"numoutlets" : 2,
					"outlettype" : [ "", "" ],
					"patching_rect" : [ 245.0, 466.627310872077942, 67.0, 22.0 ],
					"text" : "zl.compare"
				}

			}
, 			{
				"box" : 				{
					"id" : "obj-185",
					"maxclass" : "newobj",
					"numinlets" : 1,
					"numoutlets" : 3,
					"outlettype" : [ "", "", "" ],
					"patching_rect" : [ 129.786159574985504, 465.687139868736267, 40.0, 22.0 ],
					"text" : "t l l l"
				}

			}
, 			{
				"box" : 				{
					"id" : "obj-156",
					"maxclass" : "newobj",
					"numinlets" : 2,
					"numoutlets" : 1,
					"outlettype" : [ "" ],
					"patching_rect" : [ 129.786159574985504, 504.161497354507446, 32.0, 22.0 ],
					"text" : "gate"
				}

			}
, 			{
				"box" : 				{
					"id" : "obj-155",
					"maxclass" : "newobj",
					"numinlets" : 2,
					"numoutlets" : 2,
					"outlettype" : [ "", "" ],
					"patching_rect" : [ 55.094086945056915, 465.687139868736267, 67.0, 22.0 ],
					"text" : "zl.compare"
				}

			}
, 			{
				"box" : 				{
					"id" : "obj-144",
					"maxclass" : "newobj",
					"numinlets" : 1,
					"numoutlets" : 1,
					"outlettype" : [ "" ],
					"patching_rect" : [ 434.75, 538.822687149047852, 95.0, 22.0 ],
					"text" : "prepend /DSS/X"
				}

			}
, 			{
				"box" : 				{
					"id" : "obj-143",
					"maxclass" : "message",
					"numinlets" : 2,
					"numoutlets" : 1,
					"outlettype" : [ "" ],
					"patching_rect" : [ 475.500000774860382, 347.666704297065735, 74.0, 22.0 ],
					"text" : "getcolumn 0"
				}

			}
, 			{
				"box" : 				{
					"columns" : 1,
					"id" : "obj-141",
					"maxclass" : "matrixctrl",
					"numinlets" : 1,
					"numoutlets" : 2,
					"outlettype" : [ "list", "list" ],
					"parameter_enable" : 0,
					"patching_rect" : [ 434.75, 311.291704297065735, 23.916664958000183, 67.375 ],
					"presentation" : 1,
					"presentation_rect" : [ 261.541667520999908, 61.0, 28.916664958000183, 97.0 ],
					"style" : "velvet"
				}

			}
, 			{
				"box" : 				{
					"id" : "obj-56",
					"maxclass" : "newobj",
					"numinlets" : 1,
					"numoutlets" : 1,
					"outlettype" : [ "" ],
					"patching_rect" : [ 245.0, 538.822687149047852, 108.0, 22.0 ],
					"text" : "prepend /DSS/B"
				}

			}
, 			{
				"box" : 				{
					"id" : "obj-54",
					"maxclass" : "message",
					"numinlets" : 2,
					"numoutlets" : 1,
					"outlettype" : [ "" ],
					"patching_rect" : [ 288.0, 352.666704297065735, 74.0, 22.0 ],
					"text" : "getcolumn 0"
				}

			}
, 			{
				"box" : 				{
					"id" : "obj-55",
					"maxclass" : "message",
					"numinlets" : 2,
					"numoutlets" : 1,
					"outlettype" : [ "" ],
					"patching_rect" : [ 91.0, 356.666704297065735, 74.0, 22.0 ],
					"text" : "getcolumn 0"
				}

			}
, 			{
				"box" : 				{
					"id" : "obj-65",
					"maxclass" : "newobj",
					"numinlets" : 1,
					"numoutlets" : 1,
					"outlettype" : [ "" ],
					"patching_rect" : [ 55.094086945056915, 538.822687149047852, 104.0, 22.0 ],
					"text" : "prepend /DSS/A"
				}

			}
, 			{
				"box" : 				{
					"columns" : 1,
					"id" : "obj-51",
					"maxclass" : "matrixctrl",
					"numinlets" : 1,
					"numoutlets" : 2,
					"outlettype" : [ "list", "list" ],
					"parameter_enable" : 0,
					"patching_rect" : [ 245.0, 316.291704297065735, 19.024234175682068, 93.375 ],
					"presentation" : 1,
					"presentation_rect" : [ 156.987882912158966, 61.0, 30.012117087841034, 142.0 ],
					"rows" : 6,
					"style" : "velvet"
				}

			}
, 			{
				"box" : 				{
					"columns" : 1,
					"id" : "obj-47",
					"maxclass" : "matrixctrl",
					"numinlets" : 1,
					"numoutlets" : 2,
					"outlettype" : [ "list", "list" ],
					"parameter_enable" : 0,
					"patching_rect" : [ 55.094086945056915, 320.291704297065735, 18.0, 93.375 ],
					"presentation" : 1,
					"presentation_rect" : [ 51.677419424057007, 61.0, 29.5, 142.0 ],
					"rows" : 6,
					"style" : "velvet"
				}

			}
, 			{
				"box" : 				{
					"id" : "obj-46",
					"maxclass" : "newobj",
					"numinlets" : 1,
					"numoutlets" : 0,
					"patching_rect" : [ 55.094086945056915, 631.0, 165.0, 22.0 ],
					"text" : "udpsend 192.168.42.90 1336"
				}

			}
, 			{
				"box" : 				{
					"fontname" : "Helvetica Neue Medium",
					"fontsize" : 19.0,
					"id" : "obj-268",
					"linecount" : 6,
					"maxclass" : "comment",
					"numinlets" : 1,
					"numoutlets" : 0,
					"patching_rect" : [ 205.0, 311.291704297065735, 27.0, 142.0 ],
					"presentation" : 1,
					"presentation_linecount" : 6,
					"presentation_rect" : [ 113.0, 61.0, 27.0, 142.0 ],
					"text" : "W\nP\nHT\nC\nJ",
					"textcolor" : [ 0.364705882352941, 0.43921568627451, 0.847058823529412, 1.0 ],
					"textjustification" : 1
				}

			}
, 			{
				"box" : 				{
					"fontname" : "Helvetica Neue Medium",
					"fontsize" : 19.0,
					"id" : "obj-269",
					"linecount" : 6,
					"maxclass" : "comment",
					"numinlets" : 1,
					"numoutlets" : 0,
					"patching_rect" : [ 5.0, 317.0, 28.0, 142.0 ],
					"presentation" : 1,
					"presentation_linecount" : 6,
					"presentation_rect" : [ 12.0, 61.0, 28.0, 142.0 ],
					"text" : "L\nV\nU\nR\nD\nE",
					"textcolor" : [ 0.847058823529412, 0.0, 0.0, 1.0 ],
					"textjustification" : 1
				}

			}
, 			{
				"box" : 				{
					"id" : "obj-1",
					"maxclass" : "newobj",
					"numinlets" : 1,
					"numoutlets" : 3,
					"outlettype" : [ "int", "int", "int" ],
					"patching_rect" : [ 52.0, 115.0, 120.0, 22.0 ],
					"text" : "notein @matchport 1"
				}

			}
 ],
		"lines" : [ 			{
				"patchline" : 				{
					"destination" : [ "obj-67", 1 ],
					"midpoints" : [ 112.0, 150.0, 123.0, 150.0, 123.0, 261.0, 76.5, 261.0 ],
					"order" : 2,
					"source" : [ "obj-1", 1 ]
				}

			}
, 			{
				"patchline" : 				{
					"destination" : [ "obj-78", 1 ],
					"midpoints" : [ 112.0, 150.0, 319.0, 150.0, 319.0, 228.0, 284.0, 228.0, 284.0, 249.0, 269.5, 249.0 ],
					"order" : 1,
					"source" : [ "obj-1", 1 ]
				}

			}
, 			{
				"patchline" : 				{
					"destination" : [ "obj-79", 0 ],
					"source" : [ "obj-1", 0 ]
				}

			}
, 			{
				"patchline" : 				{
					"destination" : [ "obj-87", 1 ],
					"midpoints" : [ 112.0, 150.0, 507.0, 150.0, 507.0, 249.0, 459.25, 249.0 ],
					"order" : 0,
					"source" : [ "obj-1", 1 ]
				}

			}
, 			{
				"patchline" : 				{
					"destination" : [ "obj-143", 0 ],
					"source" : [ "obj-141", 0 ]
				}

			}
, 			{
				"patchline" : 				{
					"destination" : [ "obj-153", 0 ],
					"source" : [ "obj-141", 1 ]
				}

			}
, 			{
				"patchline" : 				{
					"destination" : [ "obj-141", 0 ],
					"source" : [ "obj-143", 0 ]
				}

			}
, 			{
				"patchline" : 				{
					"destination" : [ "obj-46", 0 ],
					"source" : [ "obj-144", 0 ]
				}

			}
, 			{
				"patchline" : 				{
					"destination" : [ "obj-56", 0 ],
					"midpoints" : [ 329.192072629928589, 528.0, 285.0, 528.0, 285.0, 534.0, 254.5, 534.0 ],
					"source" : [ "obj-150", 0 ]
				}

			}
, 			{
				"patchline" : 				{
					"destination" : [ "obj-17", 0 ],
					"source" : [ "obj-152", 0 ]
				}

			}
, 			{
				"patchline" : 				{
					"destination" : [ "obj-163", 1 ],
					"source" : [ "obj-153", 1 ]
				}

			}
, 			{
				"patchline" : 				{
					"destination" : [ "obj-166", 0 ],
					"midpoints" : [ 539.942072629928589, 489.0, 501.0, 489.0, 501.0, 450.0, 444.25, 450.0 ],
					"source" : [ "obj-153", 2 ]
				}

			}
, 			{
				"patchline" : 				{
					"destination" : [ "obj-166", 1 ],
					"midpoints" : [ 518.942072629928589, 489.0, 501.0, 489.0, 501.0, 459.0, 492.25, 459.0 ],
					"source" : [ "obj-153", 0 ]
				}

			}
, 			{
				"patchline" : 				{
					"destination" : [ "obj-163", 0 ],
					"midpoints" : [ 444.25, 522.0, 495.0, 522.0, 495.0, 498.0, 518.942072629928589, 498.0 ],
					"source" : [ "obj-154", 0 ]
				}

			}
, 			{
				"patchline" : 				{
					"destination" : [ "obj-90", 0 ],
					"source" : [ "obj-155", 0 ]
				}

			}
, 			{
				"patchline" : 				{
					"destination" : [ "obj-65", 0 ],
					"midpoints" : [ 139.286159574985504, 528.0, 66.0, 528.0, 66.0, 534.0, 64.594086945056915, 534.0 ],
					"source" : [ "obj-156", 0 ]
				}

			}
, 			{
				"patchline" : 				{
					"destination" : [ "obj-144", 0 ],
					"midpoints" : [ 518.942072629928589, 528.0, 474.0, 528.0, 474.0, 534.0, 444.25, 534.0 ],
					"source" : [ "obj-163", 0 ]
				}

			}
, 			{
				"patchline" : 				{
					"destination" : [ "obj-154", 0 ],
					"source" : [ "obj-166", 0 ]
				}

			}
, 			{
				"patchline" : 				{
					"destination" : [ "obj-150", 0 ],
					"midpoints" : [ 254.5, 525.0, 306.0, 525.0, 306.0, 501.0, 329.192072629928589, 501.0 ],
					"source" : [ "obj-17", 0 ]
				}

			}
, 			{
				"patchline" : 				{
					"destination" : [ "obj-155", 0 ],
					"midpoints" : [ 160.286159574985504, 489.0, 180.0, 489.0, 180.0, 450.0, 64.594086945056915, 450.0 ],
					"source" : [ "obj-185", 2 ]
				}

			}
, 			{
				"patchline" : 				{
					"destination" : [ "obj-155", 1 ],
					"midpoints" : [ 139.286159574985504, 489.0, 123.0, 489.0, 123.0, 462.0, 112.594086945056915, 462.0 ],
					"source" : [ "obj-185", 0 ]
				}

			}
, 			{
				"patchline" : 				{
					"destination" : [ "obj-156", 1 ],
					"source" : [ "obj-185", 1 ]
				}

			}
, 			{
				"patchline" : 				{
					"destination" : [ "obj-1", 0 ],
					"source" : [ "obj-2", 0 ]
				}

			}
, 			{
				"patchline" : 				{
					"destination" : [ "obj-185", 0 ],
					"source" : [ "obj-47", 1 ]
				}

			}
, 			{
				"patchline" : 				{
					"destination" : [ "obj-55", 0 ],
					"source" : [ "obj-47", 0 ]
				}

			}
, 			{
				"patchline" : 				{
					"destination" : [ "obj-2", 0 ],
					"source" : [ "obj-5", 0 ]
				}

			}
, 			{
				"patchline" : 				{
					"destination" : [ "obj-54", 0 ],
					"source" : [ "obj-51", 0 ]
				}

			}
, 			{
				"patchline" : 				{
					"destination" : [ "obj-8", 0 ],
					"source" : [ "obj-51", 1 ]
				}

			}
, 			{
				"patchline" : 				{
					"destination" : [ "obj-51", 0 ],
					"source" : [ "obj-54", 0 ]
				}

			}
, 			{
				"patchline" : 				{
					"destination" : [ "obj-47", 0 ],
					"source" : [ "obj-55", 0 ]
				}

			}
, 			{
				"patchline" : 				{
					"destination" : [ "obj-46", 0 ],
					"source" : [ "obj-56", 0 ]
				}

			}
, 			{
				"patchline" : 				{
					"destination" : [ "obj-46", 0 ],
					"source" : [ "obj-65", 0 ]
				}

			}
, 			{
				"patchline" : 				{
					"destination" : [ "obj-73", 0 ],
					"source" : [ "obj-67", 0 ]
				}

			}
, 			{
				"patchline" : 				{
					"destination" : [ "obj-67", 0 ],
					"source" : [ "obj-69", 0 ]
				}

			}
, 			{
				"patchline" : 				{
					"destination" : [ "obj-47", 0 ],
					"source" : [ "obj-73", 0 ]
				}

			}
, 			{
				"patchline" : 				{
					"destination" : [ "obj-51", 0 ],
					"source" : [ "obj-76", 0 ]
				}

			}
, 			{
				"patchline" : 				{
					"destination" : [ "obj-78", 0 ],
					"source" : [ "obj-77", 0 ]
				}

			}
, 			{
				"patchline" : 				{
					"destination" : [ "obj-76", 0 ],
					"source" : [ "obj-78", 0 ]
				}

			}
, 			{
				"patchline" : 				{
					"destination" : [ "obj-69", 0 ],
					"source" : [ "obj-79", 0 ]
				}

			}
, 			{
				"patchline" : 				{
					"destination" : [ "obj-83", 0 ],
					"midpoints" : [ 105.5, 189.0, 231.0, 189.0, 231.0, 180.0, 254.5, 180.0 ],
					"source" : [ "obj-79", 1 ]
				}

			}
, 			{
				"patchline" : 				{
					"destination" : [ "obj-150", 1 ],
					"source" : [ "obj-8", 1 ]
				}

			}
, 			{
				"patchline" : 				{
					"destination" : [ "obj-152", 0 ],
					"midpoints" : [ 350.192072629928589, 489.0, 369.0, 489.0, 369.0, 453.0, 254.5, 453.0 ],
					"source" : [ "obj-8", 2 ]
				}

			}
, 			{
				"patchline" : 				{
					"destination" : [ "obj-152", 1 ],
					"midpoints" : [ 329.192072629928589, 489.0, 312.0, 489.0, 312.0, 462.0, 302.5, 462.0 ],
					"source" : [ "obj-8", 0 ]
				}

			}
, 			{
				"patchline" : 				{
					"destination" : [ "obj-77", 0 ],
					"source" : [ "obj-83", 0 ]
				}

			}
, 			{
				"patchline" : 				{
					"destination" : [ "obj-84", 0 ],
					"midpoints" : [ 298.5, 210.0, 420.0, 210.0, 420.0, 201.0, 444.25, 201.0 ],
					"source" : [ "obj-83", 1 ]
				}

			}
, 			{
				"patchline" : 				{
					"destination" : [ "obj-86", 0 ],
					"source" : [ "obj-84", 0 ]
				}

			}
, 			{
				"patchline" : 				{
					"destination" : [ "obj-141", 0 ],
					"source" : [ "obj-85", 0 ]
				}

			}
, 			{
				"patchline" : 				{
					"destination" : [ "obj-87", 0 ],
					"source" : [ "obj-86", 0 ]
				}

			}
, 			{
				"patchline" : 				{
					"destination" : [ "obj-85", 0 ],
					"source" : [ "obj-87", 0 ]
				}

			}
, 			{
				"patchline" : 				{
					"destination" : [ "obj-156", 0 ],
					"midpoints" : [ 64.594086945056915, 522.0, 114.0, 522.0, 114.0, 498.0, 139.286159574985504, 498.0 ],
					"source" : [ "obj-90", 0 ]
				}

			}
 ],
		"dependency_cache" : [  ],
		"autosave" : 0,
		"bgcolor" : [ 0.0, 0.0, 0.0, 1.0 ]
	}

}
