#N canvas -780 489 693 487 12;
#X obj 122 231 vu 19 200 empty empty -1 -10 0 12 #404040 #000000 1 0;
#X obj 122 101 env~ 1028;
#X obj 122 146 - 100;
#X obj 288 15 netreceive -u -b 1343;
#X obj 238 219 print;
#X obj 291 359 pp.spat8~;
#A saved;
#X obj 294 434 dac~ 1 2 3 4;
#X obj 121 52 adc~ 1;
#X obj 288 82 route list;
#X obj 289 115 route OSCar;
#X obj 291 252 route x;
#X obj 360 253 route y;
#X obj 229 177 route list 1;
#X obj 309 147 list split 1;
#X obj 349 179 list trim;
#X obj 290 219 route list A;
#X obj 360 282 - 0.5;
#X obj 360 311 * 2;
#X obj 292 283 - 0.5;
#X obj 292 312 * 2;
#X text 358 50 list OSCar 1 A x 0.2;
#X obj 288 51 oscparse;
#X connect 1 0 2 0;
#X connect 2 0 0 0;
#X connect 3 0 21 0;
#X connect 5 0 6 0;
#X connect 5 2 6 1;
#X connect 5 4 6 2;
#X connect 5 6 6 3;
#X connect 7 0 1 0;
#X connect 7 0 5 0;
#X connect 8 0 9 0;
#X connect 9 0 13 0;
#X connect 9 0 12 0;
#X connect 10 0 18 0;
#X connect 11 0 16 0;
#X connect 13 1 14 0;
#X connect 14 0 15 0;
#X connect 15 1 10 0;
#X connect 15 1 11 0;
#X connect 16 0 17 0;
#X connect 17 0 5 2;
#X connect 18 0 19 0;
#X connect 19 0 5 1;
#X connect 21 0 8 0;
